<svg width="4618" height="1424" viewBox="0 0 4618 1424" fill="none" xmlns="http://www.w3.org/2000/svg">
<g filter="url(#filter0_d_498_1176)">
<g clip-path="url(#clip0_498_1176)">
<rect x="97" y="97" width="1192.95" height="1192.95" rx="165.976" fill="white"/>
<path d="M356.583 1006.57C344.254 1042.72 363.563 1082.02 399.713 1094.35C435.862 1106.67 475.162 1087.36 487.492 1051.22L356.583 1006.57ZM676.189 283.727L741.418 260.754C731.631 232.962 705.309 214.424 675.845 214.571C646.381 214.717 620.245 233.515 610.734 261.402L676.189 283.727ZM847.821 979.249L870.794 1044.48L1001.25 998.533L978.28 933.303L847.821 979.249ZM487.492 1051.22L741.643 306.051L610.734 261.402L356.583 1006.57L487.492 1051.22ZM610.959 306.699L847.821 979.249L978.28 933.303L741.418 260.754L610.959 306.699Z" fill="#3F93A5"/>
<path d="M741.417 260.754C728.73 224.728 689.24 205.809 653.215 218.497C617.19 231.185 598.271 270.674 610.958 306.699L741.417 260.754ZM847.82 979.249L870.793 1044.48L1001.25 998.533L978.279 933.303L847.82 979.249ZM610.958 306.699L847.82 979.249L978.279 933.303L741.417 260.754L610.958 306.699Z" fill="#4EB0C6"/>
<path d="M1047.08 671.956C976.091 735.107 890.121 779.039 797.352 799.569C704.584 820.099 608.104 816.545 517.098 789.245" stroke="#56C7E0" stroke-width="148.687" stroke-linecap="round"/>
<path fill-rule="evenodd" clip-rule="evenodd" d="M947.623 1118.37C961.968 1132.17 985.911 1123.72 988.417 1103.98L1001.83 998.222L870.801 1044.46L947.623 1118.37ZM915.864 1054.23L944.56 1081.84C952.757 1089.72 966.439 1084.89 967.87 1073.61L972.883 1034.11L915.864 1054.23Z" fill="#4EB0C6"/>
</g>
</g>
<path d="M1574.88 940.055L1721.06 476.395H1834.72L1980.9 940.055H1901.05L1768.39 524.049H1785.78L1654.73 940.055H1574.88ZM1656.34 839.595V767.148H1899.76V839.595H1656.34ZM2038.47 940.055L2039.12 476.395H2117.68V759.742L2244.87 592.31H2341.78L2206.87 766.182L2353.38 940.055H2250.66L2117.68 772.622V940.055H2038.47ZM2482.87 949.714C2457.76 949.714 2436.5 944.992 2419.12 935.547C2401.73 925.887 2388.53 913.115 2379.51 897.231C2370.71 881.346 2366.31 863.851 2366.31 844.747C2366.31 828.004 2369.1 812.977 2374.68 799.669C2380.26 786.145 2388.85 774.554 2400.44 764.894C2412.03 755.02 2427.06 746.97 2445.52 740.745C2459.47 736.237 2475.79 732.159 2494.46 728.51C2513.35 724.861 2533.74 721.533 2555.64 718.528C2577.75 715.308 2600.82 711.874 2624.87 708.225L2597.18 724.002C2597.39 699.96 2592.02 682.251 2581.08 670.874C2570.13 659.497 2551.67 653.809 2525.69 653.809C2510.02 653.809 2494.89 657.458 2480.29 664.757C2465.7 672.055 2455.5 684.612 2449.71 702.429L2378.87 680.212C2387.46 650.804 2403.77 627.191 2427.81 609.375C2452.07 591.558 2484.69 582.65 2525.69 582.65C2556.61 582.65 2583.76 587.695 2607.16 597.783C2630.77 607.872 2648.26 624.401 2659.64 647.369C2665.87 659.605 2669.62 672.162 2670.91 685.042C2672.2 697.706 2672.84 711.552 2672.84 726.578V940.055H2604.9V864.71L2616.17 876.945C2600.5 902.06 2582.15 920.521 2561.11 932.327C2540.29 943.919 2514.21 949.714 2482.87 949.714ZM2498.33 887.893C2515.93 887.893 2530.95 884.78 2543.4 878.555C2555.85 872.33 2565.73 864.71 2573.03 855.694C2580.54 846.679 2585.58 838.2 2588.16 830.257C2592.24 820.383 2594.49 809.114 2594.92 796.449C2595.57 783.569 2595.89 773.159 2595.89 765.216L2619.71 772.3C2596.32 775.949 2576.25 779.169 2559.5 781.959C2542.76 784.75 2528.38 787.433 2516.36 790.009C2504.34 792.37 2493.71 795.054 2484.48 798.059C2475.46 801.279 2467.84 805.035 2461.62 809.328C2455.39 813.621 2450.56 818.559 2447.13 824.14C2443.91 829.721 2442.3 836.268 2442.3 843.781C2442.3 852.367 2444.45 859.987 2448.74 866.642C2453.03 873.082 2459.26 878.233 2467.41 882.097C2475.79 885.961 2486.09 887.893 2498.33 887.893ZM2896.09 949.714C2864.11 949.714 2836.2 941.665 2812.37 925.565C2788.55 909.466 2770.09 887.571 2756.99 859.88C2743.9 832.189 2737.35 800.957 2737.35 766.182C2737.35 730.978 2743.9 699.638 2756.99 672.162C2770.3 644.471 2789.08 622.684 2813.34 606.799C2837.59 590.7 2866.14 582.65 2898.99 582.65C2932.04 582.65 2959.74 590.7 2982.06 606.799C3004.6 622.684 3021.66 644.471 3033.26 672.162C3044.85 699.853 3050.64 731.193 3050.64 766.182C3050.64 800.742 3044.85 831.975 3033.26 859.88C3021.66 887.571 3004.38 909.466 2981.42 925.565C2958.45 941.665 2930 949.714 2896.09 949.714ZM2908 880.165C2928.82 880.165 2945.57 875.443 2958.23 865.998C2971.11 856.338 2980.45 842.922 2986.25 825.75C2992.26 808.577 2995.26 788.721 2995.26 766.182C2995.26 743.428 2992.26 723.573 2986.25 706.615C2980.45 689.442 2971.33 676.133 2958.88 666.688C2946.43 657.029 2930.33 652.199 2910.58 652.199C2889.76 652.199 2872.58 657.351 2859.06 667.654C2845.54 677.743 2835.56 691.481 2829.12 708.869C2822.68 726.041 2819.46 745.146 2819.46 766.182C2819.46 787.433 2822.57 806.752 2828.79 824.14C2835.23 841.312 2845 854.943 2858.09 865.032C2871.19 875.121 2887.82 880.165 2908 880.165ZM2995.26 940.055V695.989H2985.6V476.395H3063.84V940.055H2995.26ZM3312.22 949.714C3277.01 949.714 3246.1 942.094 3219.48 926.853C3192.87 911.613 3172.04 890.469 3157.02 863.422C3142.21 836.375 3134.8 805.25 3134.8 770.046C3134.8 732.052 3142.1 699.102 3156.7 671.196C3171.29 643.076 3191.58 621.288 3217.55 605.833C3243.53 590.378 3273.58 582.65 3307.71 582.65C3343.77 582.65 3374.36 591.129 3399.47 608.087C3424.8 624.83 3443.59 648.55 3455.82 679.246C3468.06 709.942 3472.67 746.112 3469.67 787.755H3392.71V759.42C3392.5 721.641 3385.84 694.057 3372.75 676.67C3359.66 659.283 3339.05 650.589 3310.93 650.589C3279.16 650.589 3255.55 660.463 3240.09 680.212C3224.64 699.746 3216.91 728.402 3216.91 766.182C3216.91 801.386 3224.64 828.647 3240.09 847.967C3255.55 867.286 3278.09 876.945 3307.71 876.945C3326.81 876.945 3343.23 872.76 3356.97 864.388C3370.92 855.802 3381.66 843.459 3389.17 827.36L3465.8 850.543C3452.49 881.883 3431.89 906.246 3403.98 923.633C3376.29 941.021 3345.7 949.714 3312.22 949.714ZM3192.44 787.755V729.154H3431.67V787.755H3192.44ZM3949.69 940.055V728.832C3949.69 705.005 3943.79 686.437 3931.98 673.128C3920.18 659.605 3904.19 652.843 3884.01 652.843C3871.56 652.843 3860.4 655.741 3850.52 661.537C3840.65 667.118 3832.81 675.489 3827.02 686.652C3821.22 697.599 3818.32 710.693 3818.32 725.934L3783.87 705.649C3783.66 681.607 3789.02 660.463 3799.97 642.218C3811.13 623.757 3826.16 609.375 3845.05 599.071C3863.94 588.768 3884.97 583.616 3908.16 583.616C3946.58 583.616 3975.99 595.208 3996.38 618.391C4016.99 641.359 4027.29 671.626 4027.29 709.191V940.055H3949.69ZM3531.43 940.055V592.31H3600.02V700.175H3609.68V940.055H3531.43ZM3741.05 940.055V729.798C3741.05 705.541 3735.14 686.652 3723.34 673.128C3711.53 659.605 3695.43 652.843 3675.04 652.843C3655.29 652.843 3639.41 659.605 3627.38 673.128C3615.58 686.652 3609.68 704.254 3609.68 725.934L3574.9 702.751C3574.9 680.212 3580.48 659.927 3591.64 641.896C3602.81 623.864 3617.83 609.697 3636.72 599.393C3655.83 588.875 3677.19 583.616 3700.8 583.616C3726.77 583.616 3748.45 589.197 3765.84 600.359C3783.44 611.307 3796.54 626.333 3805.12 645.437C3813.92 664.327 3818.32 685.686 3818.32 709.513V940.055H3741.05ZM4117.71 539.504V468.345H4195.31V539.504H4117.71ZM4117.71 940.055V592.31H4195.31V940.055H4117.71ZM4389 949.714C4363.89 949.714 4342.64 944.992 4325.25 935.547C4307.86 925.887 4294.66 913.115 4285.65 897.231C4276.84 881.346 4272.44 863.851 4272.44 844.747C4272.44 828.004 4275.23 812.977 4280.82 799.669C4286.4 786.145 4294.98 774.554 4306.57 764.894C4318.17 755.02 4333.19 746.97 4351.65 740.745C4365.61 736.237 4381.92 732.159 4400.59 728.51C4419.48 724.861 4439.88 721.533 4461.77 718.528C4483.88 715.308 4506.96 711.874 4531 708.225L4503.31 724.002C4503.52 699.96 4498.16 682.251 4487.21 670.874C4476.26 659.497 4457.8 653.809 4431.83 653.809C4416.16 653.809 4401.02 657.458 4386.43 664.757C4371.83 672.055 4361.63 684.612 4355.84 702.429L4285 680.212C4293.59 650.804 4309.9 627.191 4333.94 609.375C4358.2 591.558 4390.83 582.65 4431.83 582.65C4462.74 582.65 4489.89 587.695 4513.29 597.783C4536.9 607.872 4554.4 624.401 4565.77 647.369C4572 659.605 4575.75 672.162 4577.04 685.042C4578.33 697.706 4578.97 711.552 4578.97 726.578V940.055H4511.04V864.71L4522.31 876.945C4506.64 902.06 4488.28 920.521 4467.25 932.327C4446.42 943.919 4420.34 949.714 4389 949.714ZM4404.46 887.893C4422.06 887.893 4437.09 884.78 4449.54 878.555C4461.99 872.33 4471.86 864.71 4479.16 855.694C4486.67 846.679 4491.72 838.2 4494.29 830.257C4498.37 820.383 4500.62 809.114 4501.05 796.449C4501.7 783.569 4502.02 773.159 4502.02 765.216L4525.85 772.3C4502.45 775.949 4482.38 779.169 4465.64 781.959C4448.89 784.75 4434.51 787.433 4422.49 790.009C4410.47 792.37 4399.84 795.054 4390.61 798.059C4381.6 801.279 4373.98 805.035 4367.75 809.328C4361.53 813.621 4356.7 818.559 4353.26 824.14C4350.04 829.721 4348.43 836.268 4348.43 843.781C4348.43 852.367 4350.58 859.987 4354.87 866.642C4359.17 873.082 4365.39 878.233 4373.55 882.097C4381.92 885.961 4392.22 887.893 4404.46 887.893Z" fill="currentColor"/>
<defs>
<filter id="filter0_d_498_1176" x="0.678082" y="0.678082" width="1422.82" height="1422.82" filterUnits="userSpaceOnUse" color-interpolation-filters="sRGB">
<feFlood flood-opacity="0" result="BackgroundImageFix"/>
<feColorMatrix in="SourceAlpha" type="matrix" values="0 0 0 0 0 0 0 0 0 0 0 0 0 0 0 0 0 0 127 0" result="hardAlpha"/>
<feOffset dx="18.6129" dy="18.6129"/>
<feGaussianBlur stdDeviation="57.4674"/>
<feComposite in2="hardAlpha" operator="out"/>
<feColorMatrix type="matrix" values="0 0 0 0 0 0 0 0 0 0 0 0 0 0 0 0 0 0 0.12 0"/>
<feBlend mode="normal" in2="BackgroundImageFix" result="effect1_dropShadow_498_1176"/>
<feBlend mode="normal" in="SourceGraphic" in2="effect1_dropShadow_498_1176" result="shape"/>
</filter>
<clipPath id="clip0_498_1176">
<rect x="97" y="97" width="1192.95" height="1192.95" rx="165.976" fill="white"/>
</clipPath>
</defs>
</svg>
